<svg version="1.1" width="500" height="500" xmlns="http://www.w3.org/2000/svg">
<rect x="0" y="0" width="500" height="500" fill="#1e2f33" />
<g transform="scale(1.95312, 1.95312)">
<path d="M 153.468 84.9491 C 172.286 121.537, 177.615 183.041, 165.37 222.321 C 153.126 261.6, 127.945 263.782, 109.127 227.194 C 90.3085 190.605, 84.9797 129.102, 97.2241 89.8223 C 109.469 50.5425, 134.65 48.3607, 153.468 84.9491" fill="#e5a182" fill-opacity="0.501961" />
<path d="M 143 198 L 254 1 L 260 271 Z" fill="#000710" fill-opacity="0.501961" />
<path d="M 156.301 97.9186 C 145.065 107.463, 125.846 108.829, 113.374 100.969 C 100.902 93.1085, 99.8996 78.9993, 111.135 69.4548 C 122.371 59.9103, 141.589 58.5448, 154.062 66.4048 C 166.534 74.2649, 167.536 88.3741, 156.301 97.9186" fill="#cd9d83" fill-opacity="0.501961" />
<path d="M 60.8511 146.198 C 77.1634 156.775, 100.974 177.025, 114.033 191.427 C 127.093 205.829, 124.456 208.93, 108.143 198.353 C 91.831 187.776, 68.0204 167.526, 54.961 153.124 C 41.9016 138.722, 44.5387 135.621, 60.8511 146.198" fill="#000a12" fill-opacity="0.501961" />
<path d="M 259 251 L 105 -16 L 271 14 Z" fill="#001522" fill-opacity="0.501961" />
<path d="M 142 -16 L 1 271 L -1 -16 Z" fill="#001928" fill-opacity="0.501961" />
<path d="M 116 263 L 24 -16 L -16 253 Z" fill="#001e26" fill-opacity="0.501961" />
<path d="M 137.41 104.093 L 148.913 120.836 L 157.511 122.135 L 203.701 104.581 Z" fill="#001616" fill-opacity="0.501961" />
<path d="M 86.6087 156.409 L 116.309 138.358 L 91.9615 114.236 L 89.6097 110.662 Z" fill="#ce9d83" fill-opacity="0.501961" />
<path d="M 93.9707 114.841 L 66.2008 102.006 L 123.769 104.977 L 92.5935 125.014 Z" fill="#00171c" fill-opacity="0.501961" />
<path d="M 93 213 L 143 259 L 180 199 Z" fill="#988072" fill-opacity="0.501961" />
<path d="M 271 251 L 154 271 L 234 10 Z" fill="#001a20" fill-opacity="0.501961" />
<path d="M 171.799 123.686 C 182.734 129.935, 182.734 140.065, 171.799 146.314 C 160.864 152.562, 143.136 152.562, 132.201 146.314 C 121.266 140.065, 121.266 129.935, 132.201 123.686 C 143.136 117.438, 160.864 117.438, 171.799 123.686" fill="#ab7861" fill-opacity="0.501961" />
<path d="M 174.284 151.585 L 155.63 180.599 L 236.374 271 L 205.163 -16 Z" fill="#001c23" fill-opacity="0.501961" />
<path d="M 188 -16 L 271 23 L 56 13 Z" fill="#002c4c" fill-opacity="0.501961" />
<path d="M 73.1781 120.387 L 78.1408 119.777 L 80.8219 141.613 L 75.8592 142.223 Z" fill="#c7957e" fill-opacity="0.501961" />
<path d="M 142.322 83.4542 C 153.355 89.0316, 152.764 96.6386, 141.002 100.445 C 129.24 104.251, 110.762 102.816, 99.7297 97.2383 C 88.6973 91.6609, 89.2883 84.0539, 101.05 80.2475 C 112.811 76.4412, 131.29 77.8769, 142.322 83.4542" fill="#be9a86" fill-opacity="0.501961" />
<path d="M 141 187 L 129 105 L 118 199 Z" fill="#b48c7b" fill-opacity="0.501961" />
<path d="M 181.169 -16 L 260.284 -16 L 255.723 8.44592 L 257.384 9.46638 Z" fill="#7c7b92" fill-opacity="0.501961" />
<path d="M -16 142 L 172 14 L -11 -16 Z" fill="#002533" fill-opacity="0.501961" />
<path d="M 154 81 L 165 81 L 165 102 L 154 102 Z" fill="#a27053" fill-opacity="0.501961" />
<path d="M 89 84 L 108 60 L 152 59 Z" fill="#72503b" fill-opacity="0.501961" />
<path d="M 175 195 L 167 228 L 132 196 Z" fill="#67503a" fill-opacity="0.501961" />
<path d="M 114.439 123.222 L 88.4573 117.692 L 85.2265 149.541 L 100.695 169.642 Z" fill="#af8873" fill-opacity="0.501961" />
<path d="M 99.1254 271 L -16 149.199 L 110.496 173.643 L 96.82 196.823 Z" fill="#021e25" fill-opacity="0.501961" />
<path d="M 260.324 239.983 L 160.154 190.99 L 138.369 195.462 L 187.337 143.665 Z" fill="#021c21" fill-opacity="0.501961" />
<path d="M 142 76 L 130 126 L 114 79 Z" fill="#ba9986" fill-opacity="0.501961" />
<path d="M 99 12 L 271 26 L 86 67 Z" fill="#001d22" fill-opacity="0.501961" />
<path d="M 103.994 264.047 C 98.3319 258.506, 98.7255 249.964, 104.873 244.967 C 111.021 239.971, 120.595 240.412, 126.257 245.953 C 131.92 251.494, 131.526 260.036, 125.378 265.033 C 119.23 270.029, 109.656 269.588, 103.994 264.047" fill="#001419" fill-opacity="0.501961" />
<path d="M 164.059 77.8083 L 160.102 101.707 L 179.656 134.313 L 165.454 169.78 Z" fill="#67503f" fill-opacity="0.501961" />
<path d="M 161.209 136.223 C 163.668 140.122, 161.953 143.751, 157.38 144.328 C 152.807 144.905, 147.107 142.212, 144.649 138.313 C 142.191 134.414, 143.905 130.785, 148.478 130.208 C 153.051 129.631, 158.751 132.324, 161.209 136.223" fill="#c59c89" fill-opacity="0.501961" />
<path d="M 153.619 153.286 C 159.435 150.238, 160.708 151.828, 156.461 156.837 C 152.215 161.846, 144.057 168.377, 138.241 171.425 C 132.425 174.473, 131.152 172.883, 135.398 167.874 C 139.645 162.866, 147.802 156.334, 153.619 153.286" fill="#6b3b24" fill-opacity="0.501961" />
<path d="M 141.021 220.515 C 147.66 225.201, 147.66 232.799, 141.021 237.485 C 134.382 242.172, 123.618 242.172, 116.979 237.485 C 110.34 232.799, 110.34 225.201, 116.979 220.515 C 123.618 215.828, 134.382 215.828, 141.021 220.515" fill="#a08c80" fill-opacity="0.501961" />
<path d="M 130.652 8.87868 C 188.449 10.0503, 188.449 11.9497, 130.652 13.1213 C 72.8542 14.2929, -20.8542 14.2929, -78.6518 13.1213 C -136.449 11.9497, -136.449 10.0503, -78.6518 8.87868 C -20.8542 7.70711, 72.8542 7.70711, 130.652 8.87868" fill="#063568" fill-opacity="0.501961" />
<path d="M 216.456 229.544 C 230.515 243.603, 230.515 266.397, 216.456 280.456 C 202.397 294.515, 179.603 294.515, 165.544 280.456 C 151.485 266.397, 151.485 243.603, 165.544 229.544 C 179.603 215.485, 202.397 215.485, 216.456 229.544" fill="#001a21" fill-opacity="0.501961" />
<path d="M 95 103 L 109 103 L 109 118 L 95 118 Z" fill="#1c292c" fill-opacity="0.501961" />
<path d="M 104 74 L 89 87 L 89 109 Z" fill="#74543b" fill-opacity="0.501961" />
<path d="M 137.192 159.879 C 142.269 161.05, 142.269 162.95, 137.192 164.121 C 132.116 165.293, 123.884 165.293, 118.808 164.121 C 113.731 162.95, 113.731 161.05, 118.808 159.879 C 123.884 158.707, 132.116 158.707, 137.192 159.879" fill="#c1c09f" fill-opacity="0.501961" />
<path d="M 96 195 L 103 195 L 103 212 L 96 212 Z" fill="#795e4c" fill-opacity="0.501961" />
<path d="M 132 16 L 271 24 L 204 135 Z" fill="#001e25" fill-opacity="0.501961" />
<path d="M 105 180 L 128 148 L 119 102 Z" fill="#815441" fill-opacity="0.501961" />
<path d="M 170.879 223.41 L 169.235 206.796 L 151.807 170.966 L 162.47 218.423 Z" fill="#3c3426" fill-opacity="0.501961" />
<path d="M 169.084 224.908 L 125.107 206.769 L 154.985 197.425 L 158.576 239.614 Z" fill="#876c60" fill-opacity="0.501961" />
<path d="M 110 199 L 146 199 L 146 202 L 110 202 Z" fill="#3a3733" fill-opacity="0.501961" />
<path d="M 168.321 78.5798 L 146.906 56.987 L 166.039 100.462 L 168.611 144.292 Z" fill="#5a4732" fill-opacity="0.501961" />
<path d="M 234.227 125.291 L 148.829 109.017 L 132.66 114.275 L 152.593 104.6 Z" fill="#011a1f" fill-opacity="0.501961" />
<path d="M 168.214 145.994 C 168.94 152.199, 166.671 161.409, 163.145 166.565 C 159.619 171.722, 156.172 170.873, 155.446 164.668 C 154.719 158.464, 156.988 149.254, 160.514 144.097 C 164.04 138.94, 167.487 139.79, 168.214 145.994" fill="#a17b67" fill-opacity="0.501961" />
<path d="M -16 162 L 85 117 L 109 9 Z" fill="#011f27" fill-opacity="0.501961" />
<path d="M 151.288 169.217 L 82.0256 170.537 L 156.572 162.649 L 138.411 154.608 Z" fill="#754731" fill-opacity="0.501961" />
<path d="M 76 211 L 34 120 L 89 148 Z" fill="#081c22" fill-opacity="0.501961" />
<path d="M 86.4437 154.722 L 91.5505 164.876 L 97.3077 132.19 L 117.411 132.157 Z" fill="#b99581" fill-opacity="0.501961" />
<path d="M 103 227 L -7 253 L 157 271 Z" fill="#032024" fill-opacity="0.501961" />
<path d="M 212 50 L 271 10 L 210 0 Z" fill="#002f3e" fill-opacity="0.501961" />
<path d="M 135.598 144.502 L 138.962 107.11 L 146.636 150.497 L 93.4436 150.109 Z" fill="#7e5c4c" fill-opacity="0.501961" />
<path d="M 173.414 72.0883 C 174.195 100.206, 174.195 145.794, 173.414 173.912 C 172.633 202.029, 171.367 202.029, 170.586 173.912 C 169.805 145.794, 169.805 100.206, 170.586 72.0883 C 171.367 43.9706, 172.633 43.9706, 173.414 72.0883" fill="#071f20" fill-opacity="0.501961" />
<path d="M 106.703 160.066 C 104.943 158.925, 105.037 157.24, 106.915 156.302 C 108.792 155.365, 111.741 155.531, 113.501 156.672 C 115.262 157.814, 115.167 159.499, 113.29 160.436 C 111.413 161.373, 108.464 161.208, 106.703 160.066" fill="#3f2619" fill-opacity="0.501961" />
<path d="M 175 123 L 177 123 L 177 146 L 175 146 Z" fill="#997768" fill-opacity="0.501961" />
<path d="M 197.612 181.34 L 155.753 244.657 L 125.862 271 L 271 253.469 Z" fill="#002026" fill-opacity="0.501961" />
<path d="M -46.1647 230.402 C -15.6433 215.115, 36.71 204.571, 70.7697 206.851 C 104.829 209.132, 107.698 223.373, 77.1764 238.661 C 46.655 253.948, -5.69836 264.493, -39.7581 262.212 C -73.8178 259.932, -76.6861 245.69, -46.1647 230.402" fill="#042a30" fill-opacity="0.501961" />
<path d="M 92.2836 160.996 C 91.8016 170.392, 89.8172 170.55, 87.8514 161.35 C 85.8856 152.15, 84.6827 137.075, 85.1647 127.68 C 85.6467 118.285, 87.631 118.127, 89.5968 127.326 C 91.5627 136.526, 92.7656 151.601, 92.2836 160.996" fill="#695242" fill-opacity="0.501961" />
<path d="M 108 55 L 91 94 L 80 85 Z" fill="#34372e" fill-opacity="0.501961" />
<path d="M 110 151 L 138 151 L 138 154 L 110 154 Z" fill="#b39589" fill-opacity="0.501961" />
<path d="M 152.652 52.996 C 146.25 52.9213, 136.314 50.7578, 130.46 48.1636 C 124.606 45.5694, 125.051 43.5269, 131.454 43.6016 C 137.856 43.6763, 147.792 45.8398, 153.645 48.434 C 159.499 51.0282, 159.054 53.0707, 152.652 52.996" fill="#363734" fill-opacity="0.501961" />
<path d="M 109.576 197.217 C 106.257 195.094, 102.083 190.544, 100.253 187.054 C 98.4236 183.564, 99.6313 182.456, 102.951 184.579 C 106.27 186.703, 110.444 191.253, 112.274 194.743 C 114.104 198.233, 112.896 199.341, 109.576 197.217" fill="#00191d" fill-opacity="0.501961" />
<path d="M 58.0291 -9.90775 C 59.8898 19.4232, 44.4939 59.9902, 23.6415 80.7011 C 2.78901 101.412, -15.6236 94.4241, -17.4843 65.0932 C -19.345 35.7622, -3.94917 -4.80477, 16.9033 -25.5157 C 37.7558 -46.2266, 56.1684 -39.2387, 58.0291 -9.90775" fill="#002e37" fill-opacity="0.501961" />
<path d="M 143.582 194.047 L 122.511 198.809 L 87.3578 151.626 L 99.6288 157.699 Z" fill="#9b7c6e" fill-opacity="0.501961" />
<path d="M 147 61 L 131 70 L 162 76 Z" fill="#7d5b47" fill-opacity="0.501961" />
<path d="M 151.398 260.122 L 136.762 253.916 L 106.271 198.88 L 101.434 221.735 Z" fill="#948176" fill-opacity="0.501961" />
<path d="M 76 122 L 79 122 L 79 143 L 76 143 Z" fill="#92786d" fill-opacity="0.501961" />
<path d="M 158.839 125.609 L 155.749 116.099 L 167.161 112.391 L 170.251 121.901 Z" fill="#6d523d" fill-opacity="0.501961" />
<path d="M 170 197 L 173 197 L 173 212 L 170 212 Z" fill="#937157" fill-opacity="0.501961" />
<path d="M 149.358 185.665 C 144.431 189.427, 143.127 188.232, 146.445 182.996 C 149.762 177.761, 156.446 170.467, 161.372 166.705 C 166.298 162.943, 167.603 164.138, 164.285 169.374 C 160.967 174.61, 154.284 181.904, 149.358 185.665" fill="#524435" fill-opacity="0.501961" />
<path d="M 156.087 101.644 C 151.21 96.1194, 145.977 85.8061, 144.399 78.6083 C 142.82 71.4104, 145.494 70.0536, 150.371 75.5778 C 155.248 81.102, 160.481 91.4153, 162.059 98.6131 C 163.637 105.811, 160.963 107.168, 156.087 101.644" fill="#a17d6e" fill-opacity="0.501961" />
<path d="M 104 103 L 117 103 L 117 110 L 104 110 Z" fill="#1e2221" fill-opacity="0.501961" />
<path d="M 119.92 -16 L 248.752 16.1667 L 228.584 16.5397 L 170.764 11.1751 Z" fill="#001e28" fill-opacity="0.501961" />
<path d="M 284.242 24.8664 C 309.867 28.5336, 309.756 29.4529, 283.994 26.9196 C 258.232 24.3864, 216.575 19.36, 190.95 15.6928 C 165.325 12.0256, 165.436 11.1064, 191.198 13.6396 C 216.96 16.1728, 258.617 21.1993, 284.242 24.8664" fill="#00306f" fill-opacity="0.501961" />
<path d="M 99.6569 114.343 C 102.781 117.467, 102.781 122.533, 99.6569 125.657 C 96.5327 128.781, 91.4673 128.781, 88.3431 125.657 C 85.219 122.533, 85.219 117.467, 88.3431 114.343 C 91.4673 111.219, 96.5327 111.219, 99.6569 114.343" fill="#836758" fill-opacity="0.501961" />
<path d="M 107.64 69.1416 L 103.412 104.163 L 90.6216 103.797 L 97.6809 78.0146 Z" fill="#8f6d59" fill-opacity="0.501961" />
<path d="M 148 201 L 157 213 L 158 187 Z" fill="#7f654e" fill-opacity="0.501961" />
<path d="M 221.966 3.92165 L 228.009 -16 L 263.079 5.86816 L 181.578 -5.01846 Z" fill="#53586a" fill-opacity="0.501961" />
<path d="M 149.828 155.172 C 151.391 156.734, 151.391 159.266, 149.828 160.828 C 148.266 162.391, 145.734 162.391, 144.172 160.828 C 142.609 159.266, 142.609 156.734, 144.172 155.172 C 145.734 153.609, 148.266 153.609, 149.828 155.172" fill="#34261f" fill-opacity="0.501961" />
<path d="M 117.941 201.652 L 92.854 165.724 L 133.16 170.15 L 104.253 154.247 Z" fill="#6d4e3d" fill-opacity="0.501961" />
<path d="M 184.333 16.603 L 132.443 11.7514 L 173.984 12.287 L 193.421 15.7133 Z" fill="#093169" fill-opacity="0.501961" />
<path d="M 43.1421 9.87868 C 50.9526 11.0503, 50.9526 12.9497, 43.1421 14.1213 C 35.3316 15.2929, 22.6684 15.2929, 14.8579 14.1213 C 7.04738 12.9497, 7.04738 11.0503, 14.8579 9.87868 C 22.6684 8.70711, 35.3316 8.70711, 43.1421 9.87868" fill="#063a6b" fill-opacity="0.501961" />
<path d="M 128.002 203.046 L 180.904 173.948 L 184.273 140.929 L 146.28 196.658 Z" fill="#071d22" fill-opacity="0.501961" />
<path d="M 158.971 -16 L 80.5212 -16 L 124.091 3.6793 L 158.427 10.8558 Z" fill="#222e36" fill-opacity="0.501961" />
<path d="M 68 100 L 42 128 L 105 108 Z" fill="#041f26" fill-opacity="0.501961" />
<path d="M 132.91 53.0376 C 129.481 53.9447, 126.888 51.8111, 127.116 48.2722 C 127.345 44.7332, 130.31 41.129, 133.738 40.2219 C 137.166 39.3148, 139.76 41.4484, 139.531 44.9873 C 139.303 48.5263, 136.338 52.1305, 132.91 53.0376" fill="#393836" fill-opacity="0.501961" />
<path d="M 90 141 L 111 128 L 112 145 Z" fill="#c39b89" fill-opacity="0.501961" />
<path d="M 72.0928 129.479 C 78.2355 135.729, 79.2107 146.663, 74.2711 153.901 C 69.3315 161.139, 60.3476 161.94, 54.2049 155.691 C 48.0623 149.441, 47.087 138.507, 52.0266 131.269 C 56.9662 124.031, 65.9501 123.23, 72.0928 129.479" fill="#091d23" fill-opacity="0.501961" />
<path d="M 134.675 236.217 L 140.395 260.434 L 152.495 245.778 L 150.744 198.991 Z" fill="#967b71" fill-opacity="0.501961" />
<path d="M 188 170 L 162 14 L 271 72 Z" fill="#001b22" fill-opacity="0.501961" />
<path d="M 145.889 62.669 C 135.184 63.7641, 117.819 63.8697, 107.102 62.9049 C 96.3848 61.94, 96.3746 60.27, 107.079 59.1749 C 117.784 58.0798, 135.149 57.9742, 145.866 58.9391 C 156.583 59.904, 156.593 61.5739, 145.889 62.669" fill="#473b31" fill-opacity="0.501961" />
<path d="M 102 110 L 120 110 L 120 113 L 102 113 Z" fill="#614b3f" fill-opacity="0.501961" />
<path d="M 267.61 225.159 L 204.39 188.659 L 242.39 122.841 L 305.61 159.341 Z" fill="#011219" fill-opacity="0.501961" />
<path d="M 108.435 147.65 L 121.784 132.76 L 121.775 100.737 L 119.549 123.269 Z" fill="#734c38" fill-opacity="0.501961" />
<path d="M 149 106 L 161 106 L 161 118 L 149 118 Z" fill="#152529" fill-opacity="0.501961" />
</g>
</svg>
