<svg version="1.1" width="500" height="500" xmlns="http://www.w3.org/2000/svg">
<rect x="0" y="0" width="500" height="500" fill="#7d6d66" />
<g transform="scale(1.95312, 1.95312)">
<path d="M 271 -1 L 171 -4 L 267 125 Z" fill="#ffffff" fill-opacity="0.501961" class="fade-in" style="animation-delay: 0.015s;" />
<path d="M 182 5 L 48 86 L 207 130 Z" fill="#0c0000" fill-opacity="0.501961" class="fade-in" style="animation-delay: 0.03s;" />
<path d="M 217 41 L 81 25 L 217 92 Z" fill="#000000" fill-opacity="0.501961" class="fade-in" style="animation-delay: 0.045s;" />
<path d="M 244 -6 L 86 -1 L 271 49 Z" fill="#fbffff" fill-opacity="0.501961" class="fade-in" style="animation-delay: 0.06s;" />
<path d="M 249 79 L 174 12 L 238 15 Z" fill="#f8fdf9" fill-opacity="0.501961" class="fade-in" style="animation-delay: 0.075s;" />
<path d="M -14 186 L -12 0 L 127 -16 Z" fill="#d8eceb" fill-opacity="0.501961" class="fade-in" style="animation-delay: 0.09s;" />
<path d="M 13 160 L 24 82 L 149 3 Z" fill="#9c705f" fill-opacity="0.501961" class="fade-in" style="animation-delay: 0.105s;" />
<path d="M -9 195 L 37 33 L -16 2 Z" fill="#e0e3e3" fill-opacity="0.501961" class="fade-in" style="animation-delay: 0.12s;" />
<path d="M 15 169 L 86 87 L 16 62 Z" fill="#74867f" fill-opacity="0.501961" class="fade-in" style="animation-delay: 0.135s;" />
<path d="M 129 143 L 148 15 L 77 89 Z" fill="#260401" fill-opacity="0.501961" class="fade-in" style="animation-delay: 0.15s;" />
<path d="M 175 271 L 271 249 L 208 147 Z" fill="#000005" fill-opacity="0.501961" class="fade-in" style="animation-delay: 0.16499999999999998s;" />
<path d="M 176 271 L 271 225 L 209 151 Z" fill="#0f1d33" fill-opacity="0.501961" class="fade-in" style="animation-delay: 0.18s;" />
<path d="M 196 165 L 201 100 L 271 32 Z" fill="#f0f2ee" fill-opacity="0.501961" class="fade-in" style="animation-delay: 0.195s;" />
<path d="M 250 112 L 197 124 L 259 2 Z" fill="#c1c9c9" fill-opacity="0.501961" class="fade-in" style="animation-delay: 0.21s;" />
<path d="M 213 31 L 233 99 L 251 -16 Z" fill="#e9ece9" fill-opacity="0.501961" class="fade-in" style="animation-delay: 0.22499999999999998s;" />
<path d="M 93 163 L 7 161 L 104 271 Z" fill="#000000" fill-opacity="0.501961" class="fade-in" style="animation-delay: 0.24s;" />
<path d="M 108 196 L 54 163 L 55 271 Z" fill="#000424" fill-opacity="0.501961" class="fade-in" style="animation-delay: 0.255s;" />
<path d="M 99 191 L 69 148 L 64 218 Z" fill="#000000" fill-opacity="0.501961" class="fade-in" style="animation-delay: 0.27s;" />
<path d="M 186 271 L 177 129 L 69 143 Z" fill="#d47e61" fill-opacity="0.501961" class="fade-in" style="animation-delay: 0.285s;" />
<path d="M 127 270 L 228 122 L 77 135 Z" fill="#ad745d" fill-opacity="0.501961" class="fade-in" style="animation-delay: 0.3s;" />
<path d="M 16 271 L 60 206 L -16 211 Z" fill="#ffffec" fill-opacity="0.501961" class="fade-in" style="animation-delay: 0.315s;" />
<path d="M 44 271 L 52 228 L -16 249 Z" fill="#dbd6c6" fill-opacity="0.501961" class="fade-in" style="animation-delay: 0.32999999999999996s;" />
<path d="M -7 271 L 50 246 L -16 190 Z" fill="#cfc7b8" fill-opacity="0.501961" class="fade-in" style="animation-delay: 0.345s;" />
<path d="M -16 249 L 22 271 L -16 178 Z" fill="#d7d3cb" fill-opacity="0.501961" class="fade-in" style="animation-delay: 0.36s;" />
<path d="M 57 206 L -16 189 L 54 129 Z" fill="#525638" fill-opacity="0.501961" class="fade-in" style="animation-delay: 0.375s;" />
<path d="M 201 99 L 225 64 L 187 24 Z" fill="#000000" fill-opacity="0.501961" class="fade-in" style="animation-delay: 0.39s;" />
<path d="M 82 67 L 218 58 L 169 17 Z" fill="#000005" fill-opacity="0.501961" class="fade-in" style="animation-delay: 0.40499999999999997s;" />
<path d="M 184 136 L 164 61 L 72 106 Z" fill="#703e2e" fill-opacity="0.501961" class="fade-in" style="animation-delay: 0.42s;" />
<path d="M 206 99 L 149 80 L 72 106 Z" fill="#815545" fill-opacity="0.501961" class="fade-in" style="animation-delay: 0.435s;" />
<path d="M 188 125 L 99 93 L 100 127 Z" fill="#40231e" fill-opacity="0.501961" class="fade-in" style="animation-delay: 0.44999999999999996s;" />
<path d="M 216 124 L 240 238 L 271 112 Z" fill="#495137" fill-opacity="0.501961" class="fade-in" style="animation-delay: 0.46499999999999997s;" />
<path d="M 213 130 L 248 137 L 271 110 Z" fill="#1f1305" fill-opacity="0.501961" class="fade-in" style="animation-delay: 0.48s;" />
<path d="M 166 151 L 197 117 L 242 152 Z" fill="#b1937f" fill-opacity="0.501961" class="fade-in" style="animation-delay: 0.495s;" />
<path d="M 77 79 L 137 20 L 85 45 Z" fill="#ff4325" fill-opacity="0.501961" class="fade-in" style="animation-delay: 0.51s;" />
<path d="M 43 4 L 229 -16 L 77 47 Z" fill="#9a9289" fill-opacity="0.501961" class="fade-in" style="animation-delay: 0.525s;" />
<path d="M 89 19 L 103 -16 L 189 6 Z" fill="#c2c8c4" fill-opacity="0.501961" class="fade-in" style="animation-delay: 0.54s;" />
<path d="M 160 -16 L 155 16 L 169 19 Z" fill="#ffffff" fill-opacity="0.501961" class="fade-in" style="animation-delay: 0.5549999999999999s;" />
<path d="M 186 -16 L 177 24 L 165 24 Z" fill="#50311f" fill-opacity="0.501961" class="fade-in" style="animation-delay: 0.57s;" />
<path d="M 64 23 L 2 42 L 69 66 Z" fill="#eaefef" fill-opacity="0.501961" class="fade-in" style="animation-delay: 0.585s;" />
<path d="M 13 28 L 25 71 L 60 44 Z" fill="#e2e5e4" fill-opacity="0.501961" class="fade-in" style="animation-delay: 0.6s;" />
<path d="M 12 23 L 99 15 L 25 1 Z" fill="#73756f" fill-opacity="0.501961" class="fade-in" style="animation-delay: 0.615s;" />
<path d="M 8 -16 L 34 -16 L 27 9 Z" fill="#6b6c66" fill-opacity="0.501961" class="fade-in" style="animation-delay: 0.63s;" />
<path d="M 31 26 L 71 -16 L 107 -16 Z" fill="#b6bab7" fill-opacity="0.501961" class="fade-in" style="animation-delay: 0.645s;" />
<path d="M 193 179 L 155 154 L 107 187 Z" fill="#67362f" fill-opacity="0.501961" class="fade-in" style="animation-delay: 0.6599999999999999s;" />
<path d="M 166 155 L 154 97 L 128 157 Z" fill="#c28075" fill-opacity="0.501961" class="fade-in" style="animation-delay: 0.6749999999999999s;" />
<path d="M 202 130 L 197 159 L 90 145 Z" fill="#c68474" fill-opacity="0.501961" class="fade-in" style="animation-delay: 0.69s;" />
<path d="M 183 196 L 132 209 L 169 215 Z" fill="#e2b397" fill-opacity="0.501961" class="fade-in" style="animation-delay: 0.705s;" />
<path d="M 173 271 L 104 208 L 102 245 Z" fill="#d6aa86" fill-opacity="0.501961" class="fade-in" style="animation-delay: 0.72s;" />
<path d="M 111 254 L 52 257 L 51 192 Z" fill="#243a5d" fill-opacity="0.501961" class="fade-in" style="animation-delay: 0.735s;" />
<path d="M 111 254 L 78 271 L 49 198 Z" fill="#2d3547" fill-opacity="0.501961" class="fade-in" style="animation-delay: 0.75s;" />
<path d="M 110 253 L 95 271 L 72 207 Z" fill="#2e2f3a" fill-opacity="0.501961" class="fade-in" style="animation-delay: 0.765s;" />
<path d="M 53 261 L 102 271 L 52 209 Z" fill="#394966" fill-opacity="0.501961" class="fade-in" style="animation-delay: 0.78s;" />
<path d="M 88 215 L 88 168 L 105 217 Z" fill="#000003" fill-opacity="0.501961" class="fade-in" style="animation-delay: 0.7949999999999999s;" />
<path d="M 81 88 L 72 159 L 54 48 Z" fill="#ada69d" fill-opacity="0.501961" class="fade-in" style="animation-delay: 0.8099999999999999s;" />
<path d="M 17 70 L 68 109 L 49 83 Z" fill="#3e4334" fill-opacity="0.501961" class="fade-in" style="animation-delay: 0.825s;" />
<path d="M -16 36 L 18 71 L -7 24 Z" fill="#676961" fill-opacity="0.501961" class="fade-in" style="animation-delay: 0.84s;" />
<path d="M 7 26 L 3 34 L 18 23 Z" fill="#70736c" fill-opacity="0.501961" class="fade-in" style="animation-delay: 0.855s;" />
<path d="M 35 24 L 0 74 L 18 23 Z" fill="#daddda" fill-opacity="0.501961" class="fade-in" style="animation-delay: 0.87s;" />
<path d="M 75 28 L 91 -2 L 106 37 Z" fill="#545244" fill-opacity="0.501961" class="fade-in" style="animation-delay: 0.885s;" />
<path d="M 94 11 L 95 -16 L 116 -2 Z" fill="#ffffff" fill-opacity="0.501961" class="fade-in" style="animation-delay: 0.8999999999999999s;" />
<path d="M 107 25 L 111 -7 L 125 -16 Z" fill="#4a4538" fill-opacity="0.501961" class="fade-in" style="animation-delay: 0.9149999999999999s;" />
<path d="M 106 20 L 119 -16 L 95 13 Z" fill="#d5d6d2" fill-opacity="0.501961" class="fade-in" style="animation-delay: 0.9299999999999999s;" />
<path d="M 98 12 L 114 -15 L 90 -7 Z" fill="#e7ebea" fill-opacity="0.501961" class="fade-in" style="animation-delay: 0.945s;" />
<path d="M 215 158 L 185 207 L 232 201 Z" fill="#000005" fill-opacity="0.501961" class="fade-in" style="animation-delay: 0.96s;" />
<path d="M 215 163 L 193 196 L 220 207 Z" fill="#02010c" fill-opacity="0.501961" class="fade-in" style="animation-delay: 0.975s;" />
<path d="M 183 166 L 212 139 L 179 229 Z" fill="#a57253" fill-opacity="0.501961" class="fade-in" style="animation-delay: 0.99s;" />
<path d="M 186 172 L 206 92 L 153 182 Z" fill="#966350" fill-opacity="0.501961" class="fade-in" style="animation-delay: 1.005s;" />
<path d="M 103 50 L 78 106 L 152 21 Z" fill="#000006" fill-opacity="0.501961" class="fade-in" style="animation-delay: 1.02s;" />
<path d="M 88 69 L 88 100 L 149 25 Z" fill="#11080f" fill-opacity="0.501961" class="fade-in" style="animation-delay: 1.035s;" />
<path d="M 111 59 L 164 56 L 211 90 Z" fill="#371710" fill-opacity="0.501961" class="fade-in" style="animation-delay: 1.05s;" />
<path d="M 203 117 L 149 64 L 203 94 Z" fill="#5e3929" fill-opacity="0.501961" class="fade-in" style="animation-delay: 1.065s;" />
<path d="M 193 98 L 202 35 L 222 77 Z" fill="#04000d" fill-opacity="0.501961" class="fade-in" style="animation-delay: 1.08s;" />
<path d="M 21 146 L 1 163 L -16 131 Z" fill="#f5faff" fill-opacity="0.501961" class="fade-in" style="animation-delay: 1.095s;" />
<path d="M -16 141 L 27 111 L -16 73 Z" fill="#dadde0" fill-opacity="0.501961" class="fade-in" style="animation-delay: 1.1099999999999999s;" />
<path d="M 4 147 L 31 94 L 12 99 Z" fill="#b6b7b8" fill-opacity="0.501961" class="fade-in" style="animation-delay: 1.125s;" />
<path d="M -16 86 L 22 76 L -16 49 Z" fill="#f9fbf9" fill-opacity="0.501961" class="fade-in" style="animation-delay: 1.14s;" />
<path d="M -11 36 L -11 90 L 6 29 Z" fill="#b3b6b4" fill-opacity="0.501961" class="fade-in" style="animation-delay: 1.155s;" />
<path d="M 150 -6 L 150 19 L 102 46 Z" fill="#c35547" fill-opacity="0.501961" class="fade-in" style="animation-delay: 1.17s;" />
<path d="M 156 -16 L 150 19 L 130 -16 Z" fill="#618783" fill-opacity="0.501961" class="fade-in" style="animation-delay: 1.185s;" />
<path d="M 194 -16 L 167 11 L 114 -16 Z" fill="#d8d9d3" fill-opacity="0.501961" class="fade-in" style="animation-delay: 1.2s;" />
<path d="M 255 36 L 240 114 L 264 117 Z" fill="#888d86" fill-opacity="0.501961" class="fade-in" style="animation-delay: 1.2149999999999999s;" />
<path d="M 263 51 L 243 93 L 271 144 Z" fill="#959693" fill-opacity="0.501961" class="fade-in" style="animation-delay: 1.23s;" />
<path d="M 257 11 L 221 44 L 226 101 Z" fill="#dfe1df" fill-opacity="0.501961" class="fade-in" style="animation-delay: 1.2449999999999999s;" />
<path d="M 244 9 L 223 50 L 226 97 Z" fill="#e3e6e3" fill-opacity="0.501961" class="fade-in" style="animation-delay: 1.26s;" />
<path d="M 256 31 L 271 100 L 231 27 Z" fill="#bdbebb" fill-opacity="0.501961" class="fade-in" style="animation-delay: 1.275s;" />
<path d="M 94 191 L 167 234 L 125 224 Z" fill="#563e2b" fill-opacity="0.501961" class="fade-in" style="animation-delay: 1.29s;" />
<path d="M 127 182 L 156 215 L 136 218 Z" fill="#c9957f" fill-opacity="0.501961" class="fade-in" style="animation-delay: 1.305s;" />
<path d="M 143 271 L 185 257 L 184 214 Z" fill="#bea988" fill-opacity="0.501961" class="fade-in" style="animation-delay: 1.3199999999999998s;" />
<path d="M 172 219 L 151 271 L 135 215 Z" fill="#8f674e" fill-opacity="0.501961" class="fade-in" style="animation-delay: 1.335s;" />
<path d="M 177 225 L 157 271 L 110 252 Z" fill="#aa846c" fill-opacity="0.501961" class="fade-in" style="animation-delay: 1.3499999999999999s;" />
<path d="M 124 160 L 89 118 L 79 158 Z" fill="#cc9b85" fill-opacity="0.501961" class="fade-in" style="animation-delay: 1.365s;" />
<path d="M 102 154 L 56 141 L 55 167 Z" fill="#94927f" fill-opacity="0.501961" class="fade-in" style="animation-delay: 1.38s;" />
<path d="M 49 145 L 64 168 L -16 196 Z" fill="#524e36" fill-opacity="0.501961" class="fade-in" style="animation-delay: 1.395s;" />
<path d="M 21 154 L 62 214 L -16 174 Z" fill="#57523f" fill-opacity="0.501961" class="fade-in" style="animation-delay: 1.41s;" />
<path d="M 271 245 L 187 192 L 188 221 Z" fill="#363d50" fill-opacity="0.501961" class="fade-in" style="animation-delay: 1.425s;" />
<path d="M 240 260 L 187 192 L 188 221 Z" fill="#232631" fill-opacity="0.501961" class="fade-in" style="animation-delay: 1.44s;" />
<path d="M 269 256 L 195 195 L 200 271 Z" fill="#2b3346" fill-opacity="0.501961" class="fade-in" style="animation-delay: 1.4549999999999998s;" />
<path d="M 221 212 L 220 228 L 191 200 Z" fill="#535a6d" fill-opacity="0.501961" class="fade-in" style="animation-delay: 1.47s;" />
<path d="M 271 256 L 249 271 L 191 213 Z" fill="#1e222f" fill-opacity="0.501961" class="fade-in" style="animation-delay: 1.4849999999999999s;" />
<path d="M 76 25 L 62 2 L 73 59 Z" fill="#616055" fill-opacity="0.501961" class="fade-in" style="animation-delay: 1.5s;" />
<path d="M 84 47 L 91 31 L 74 39 Z" fill="#d0dde9" fill-opacity="0.501961" class="fade-in" style="animation-delay: 1.515s;" />
<path d="M 48 88 L 94 41 L 35 68 Z" fill="#83908e" fill-opacity="0.501961" class="fade-in" style="animation-delay: 1.53s;" />
<path d="M 238 228 L 230 173 L 245 206 Z" fill="#5b6a8f" fill-opacity="0.501961" class="fade-in" style="animation-delay: 1.545s;" />
<path d="M 250 212 L 222 165 L 271 166 Z" fill="#6f6b40" fill-opacity="0.501961" class="fade-in" style="animation-delay: 1.56s;" />
<path d="M 269 202 L 253 139 L 242 208 Z" fill="#60593a" fill-opacity="0.501961" class="fade-in" style="animation-delay: 1.575s;" />
<path d="M 207 138 L 254 135 L 217 159 Z" fill="#7d8578" fill-opacity="0.501961" class="fade-in" style="animation-delay: 1.5899999999999999s;" />
<path d="M 206 133 L 220 164 L 209 155 Z" fill="#424638" fill-opacity="0.501961" class="fade-in" style="animation-delay: 1.605s;" />
<path d="M 220 46 L 177 20 L 189 -16 Z" fill="#e9e8e3" fill-opacity="0.501961" class="fade-in" style="animation-delay: 1.6199999999999999s;" />
<path d="M 249 -4 L 191 8 L 173 -16 Z" fill="#fbfffb" fill-opacity="0.501961" class="fade-in" style="animation-delay: 1.635s;" />
<path d="M 196 2 L 177 16 L 233 4 Z" fill="#b3b2a8" fill-opacity="0.501961" class="fade-in" style="animation-delay: 1.65s;" />
<path d="M 219 47 L 177 16 L 246 18 Z" fill="#eceeea" fill-opacity="0.501961" class="fade-in" style="animation-delay: 1.665s;" />
<path d="M 265 43 L 218 8 L 244 8 Z" fill="#ebeeea" fill-opacity="0.501961" class="fade-in" style="animation-delay: 1.68s;" />
<path d="M 160 110 L 192 98 L 176 133 Z" fill="#27100d" fill-opacity="0.501961" class="fade-in" style="animation-delay: 1.6949999999999998s;" />
<path d="M 149 115 L 195 124 L 173 135 Z" fill="#5b382f" fill-opacity="0.501961" class="fade-in" style="animation-delay: 1.71s;" />
<path d="M 142 152 L 206 149 L 201 129 Z" fill="#c6907e" fill-opacity="0.501961" class="fade-in" style="animation-delay: 1.7249999999999999s;" />
<path d="M 152 140 L 206 163 L 150 119 Z" fill="#b57b6a" fill-opacity="0.501961" class="fade-in" style="animation-delay: 1.74s;" />
<path d="M 117 -2 L 143 -8 L 118 21 Z" fill="#e3e9e7" fill-opacity="0.501961" class="fade-in" style="animation-delay: 1.755s;" />
<path d="M 139 -16 L 133 4 L 141 11 Z" fill="#cbdddd" fill-opacity="0.501961" class="fade-in" style="animation-delay: 1.77s;" />
<path d="M 107 34 L 150 23 L 139 12 Z" fill="#d35041" fill-opacity="0.501961" class="fade-in" style="animation-delay: 1.785s;" />
<path d="M 148 19 L 146 7 L 133 9 Z" fill="#86a5a2" fill-opacity="0.501961" class="fade-in" style="animation-delay: 1.7999999999999998s;" />
<path d="M 114 23 L 101 33 L 87 29 Z" fill="#2c2f1c" fill-opacity="0.501961" class="fade-in" style="animation-delay: 1.815s;" />
<path d="M 78 112 L 89 44 L 73 75 Z" fill="#c54b2b" fill-opacity="0.501961" class="fade-in" style="animation-delay: 1.8299999999999998s;" />
<path d="M 84 159 L 105 212 L 47 180 Z" fill="#00020e" fill-opacity="0.501961" class="fade-in" style="animation-delay: 1.845s;" />
<path d="M 74 161 L 73 212 L 51 187 Z" fill="#070811" fill-opacity="0.501961" class="fade-in" style="animation-delay: 1.8599999999999999s;" />
<path d="M 104 201 L 67 225 L 82 203 Z" fill="#2c3243" fill-opacity="0.501961" class="fade-in" style="animation-delay: 1.875s;" />
<path d="M 83 227 L 69 220 L 44 267 Z" fill="#262c3f" fill-opacity="0.501961" class="fade-in" style="animation-delay: 1.89s;" />
<path d="M 78 215 L 60 264 L 74 271 Z" fill="#3b4b68" fill-opacity="0.501961" class="fade-in" style="animation-delay: 1.905s;" />
<path d="M 91 225 L 127 271 L 114 214 Z" fill="#b7947d" fill-opacity="0.501961" class="fade-in" style="animation-delay: 1.92s;" />
<path d="M 124 238 L 149 243 L 101 200 Z" fill="#a9856b" fill-opacity="0.501961" class="fade-in" style="animation-delay: 1.9349999999999998s;" />
<path d="M 125 156 L 123 209 L 98 190 Z" fill="#885e45" fill-opacity="0.501961" class="fade-in" style="animation-delay: 1.95s;" />
<path d="M 136 150 L 149 177 L 92 176 Z" fill="#a06c57" fill-opacity="0.501961" class="fade-in" style="animation-delay: 1.9649999999999999s;" />
<path d="M 131 153 L 140 178 L 92 174 Z" fill="#a16d57" fill-opacity="0.501961" class="fade-in" style="animation-delay: 1.98s;" />
<path d="M 30 -16 L 77 -4 L 97 23 Z" fill="#c4c6c4" fill-opacity="0.501961" class="fade-in" style="animation-delay: 1.9949999999999999s;" />
<path d="M 206 127 L 212 112 L 217 148 Z" fill="#bfd8e0" fill-opacity="0.501961" class="fade-in" style="animation-delay: 2.01s;" />
<path d="M 203 93 L 235 108 L 216 126 Z" fill="#b1b6b6" fill-opacity="0.501961" class="fade-in" style="animation-delay: 2.025s;" />
<path d="M 249 82 L 222 77 L 219 105 Z" fill="#dde0e4" fill-opacity="0.501961" class="fade-in" style="animation-delay: 2.04s;" />
<path d="M 238 94 L 225 78 L 207 95 Z" fill="#d5d7d9" fill-opacity="0.501961" class="fade-in" style="animation-delay: 2.0549999999999997s;" />
<path d="M 233 97 L 263 107 L 220 122 Z" fill="#8f948d" fill-opacity="0.501961" class="fade-in" style="animation-delay: 2.07s;" />
<path d="M -5 166 L 57 122 L 36 152 Z" fill="#91908c" fill-opacity="0.501961" class="fade-in" style="animation-delay: 2.085s;" />
<path d="M 62 119 L 19 120 L 66 101 Z" fill="#565b4c" fill-opacity="0.501961" class="fade-in" style="animation-delay: 2.1s;" />
<path d="M 65 140 L 24 117 L 56 123 Z" fill="#929b90" fill-opacity="0.501961" class="fade-in" style="animation-delay: 2.1149999999999998s;" />
<path d="M 52 141 L 31 135 L 76 120 Z" fill="#616757" fill-opacity="0.501961" class="fade-in" style="animation-delay: 2.13s;" />
<path d="M 38 148 L 11 137 L 31 112 Z" fill="#6f726a" fill-opacity="0.501961" class="fade-in" style="animation-delay: 2.145s;" />
<path d="M 184 24 L 209 41 L 217 63 Z" fill="#441f26" fill-opacity="0.501961" class="fade-in" style="animation-delay: 2.16s;" />
<path d="M 144 26 L 206 89 L 189 30 Z" fill="#02010e" fill-opacity="0.501961" class="fade-in" style="animation-delay: 2.175s;" />
<path d="M 111 47 L 174 25 L 213 48 Z" fill="#090a14" fill-opacity="0.501961" class="fade-in" style="animation-delay: 2.19s;" />
<path d="M 158 63 L 192 32 L 218 63 Z" fill="#0e0b12" fill-opacity="0.501961" class="fade-in" style="animation-delay: 2.205s;" />
<path d="M 166 24 L 224 75 L 213 47 Z" fill="#111019" fill-opacity="0.501961" class="fade-in" style="animation-delay: 2.2199999999999998s;" />
<path d="M 103 79 L 107 136 L 147 129 Z" fill="#422620" fill-opacity="0.501961" class="fade-in" style="animation-delay: 2.235s;" />
<path d="M 77 110 L 84 123 L 84 91 Z" fill="#47170e" fill-opacity="0.501961" class="fade-in" style="animation-delay: 2.25s;" />
<path d="M 79 113 L 74 140 L 118 91 Z" fill="#94634d" fill-opacity="0.501961" class="fade-in" style="animation-delay: 2.265s;" />
<path d="M 140 66 L 111 109 L 89 98 Z" fill="#533528" fill-opacity="0.501961" class="fade-in" style="animation-delay: 2.28s;" />
<path d="M 173 92 L 150 116 L 131 93 Z" fill="#88584a" fill-opacity="0.501961" class="fade-in" style="animation-delay: 2.295s;" />
<path d="M 169 99 L 150 125 L 133 82 Z" fill="#7e5244" fill-opacity="0.501961" class="fade-in" style="animation-delay: 2.31s;" />
<path d="M 8 89 L 31 92 L 62 68 Z" fill="#63645a" fill-opacity="0.501961" class="fade-in" style="animation-delay: 2.3249999999999997s;" />
<path d="M 5 91 L 16 70 L 17 101 Z" fill="#adb0ae" fill-opacity="0.501961" class="fade-in" style="animation-delay: 2.34s;" />
<path d="M 34 83 L 39 106 L 21 135 Z" fill="#7b7e79" fill-opacity="0.501961" class="fade-in" style="animation-delay: 2.355s;" />
<path d="M 68 141 L 58 94 L 55 125 Z" fill="#555a46" fill-opacity="0.501961" class="fade-in" style="animation-delay: 2.37s;" />
<path d="M 69 138 L 103 154 L 75 155 Z" fill="#c7a092" fill-opacity="0.501961" class="fade-in" style="animation-delay: 2.385s;" />
<path d="M 166 21 L 182 -1 L 172 28 Z" fill="#432b1e" fill-opacity="0.501961" class="fade-in" style="animation-delay: 2.4s;" />
<path d="M 166 21 L 186 28 L 169 15 Z" fill="#924744" fill-opacity="0.501961" class="fade-in" style="animation-delay: 2.415s;" />
</g>
<style>
@keyframes fadeIn { from { opacity:0; } to { opacity:1; } }
.fade-in {
        opacity:0;  /* make things invisible upon start */
        animation:fadeIn ease-out 1;

        animation-fill-mode:forwards;

        animation-duration:0.5s;
}
</style>
</svg>
